<?xml version="1.0"?>
<svg xmlns="http://www.w3.org/2000/svg" viewBox="0 0 64 64">
  <defs>
    <style>.cls-1{fill:#333;}.cls-2{fill:#fff;}</style>
  </defs>
  <g id="Layer_2" data-name="Layer 2">
    <g id="Layer_1-2" data-name="Layer 1">
      <circle class="cls-1" cx="32" cy="32" r="32"/>
      <g id="Layer_1-2-2" data-name="Layer 1-2">
        <path class="cls-2" d="M32,0A32,32,0,1,0,64,32,32,32,0,0,0,32,0ZM5.52,32a3.67,3.67,0,1,1,3.68,3.7A3.66,3.66,0,0,1,5.52,32Zm45.74,0a3.67,3.67,0,1,1,3.68,3.7A3.66,3.66,0,0,1,51.26,32ZM28.3,54.9A3.67,3.67,0,1,1,32,58.6a3.66,3.66,0,0,1-3.67-3.7Zm.09-45.74a3.67,3.67,0,1,1,3.68,3.7,3.67,3.67,0,0,1-3.68-3.7ZM50.7,50.69a1.81,1.81,0,0,1-2.55,0L32.07,34.6,16,50.69a1.8,1.8,0,1,1-2.63-2.46l.09-.08L29.52,32.06,13.44,16a1.79,1.79,0,0,1-.09-2.54,1.81,1.81,0,0,1,2.55-.08l.08.08L32.07,29.52,48.15,13.43a1.8,1.8,0,0,1,2.63,2.46L50.7,16,34.61,32.06,50.7,48.15a1.8,1.8,0,0,1,0,2.54h0Z"/>
      </g>
    </g>
  </g>
</svg>
